<svg xmlns="http://www.w3.org/2000/svg" style="display: none;"><symbol id="infrastructure" viewBox="0 0 512 512"><title>infrastructure</title><path d="M472.249,152.78809a95.98713,95.98713,0,0,0-53.3789-30.90308C402.11865,60.92139,346.21143,16,280,16A144.01978,144.01978,0,0,0,158.91406,82.0249a55.98613,55.98613,0,0,0-69.293,40.615,96.00716,96.00716,0,0,0-51.6748,154.45386l12.33594-10.1875A80.00383,80.00383,0,0,1,112,136c2.42969,0,4.87988.10938,7.28223.32617l1.43554-15.93555C117.83984,120.13184,114.90625,120,112,120q-2.369,0-4.71045.1167A39.97872,39.97872,0,0,1,150.707,96.56885c-2.01025,4.10058-3.85351,8.29785-5.47949,12.60693l14.9707,5.64844A128.023,128.023,0,0,1,408,160h16a144.55533,144.55533,0,0,0-1.50342-20.76978A80.39611,80.39611,0,0,1,480,216a79.479,79.479,0,0,1-14.541,46.002l13.082,9.21289a96.01412,96.01412,0,0,0-6.292-118.42675Z"/><circle cx="88" cy="360" r="8"/><circle cx="112" cy="360" r="8"/><circle cx="136" cy="360" r="8"/><rect x="160" y="352" width="48" height="16"/><circle cx="88" cy="296" r="8"/><circle cx="112" cy="296" r="8"/><circle cx="136" cy="296" r="8"/><rect x="160" y="288" width="48" height="16"/><path d="M208,192H88a32.03667,32.03667,0,0,0-32,32v16a31.925,31.925,0,0,0,10.86816,24A31.925,31.925,0,0,0,56,288v16a31.925,31.925,0,0,0,10.86816,24A31.925,31.925,0,0,0,56,352v16a32.03667,32.03667,0,0,0,32,32H208a32.03667,32.03667,0,0,0,32-32V352a31.925,31.925,0,0,0-10.86816-24A31.925,31.925,0,0,0,240,304V288a31.925,31.925,0,0,0-10.86816-24A31.925,31.925,0,0,0,240,240V224A32.03667,32.03667,0,0,0,208,192Zm16,160v16a16.01833,16.01833,0,0,1-16,16H88a16.01833,16.01833,0,0,1-16-16V352a16.01833,16.01833,0,0,1,16-16H208A16.01833,16.01833,0,0,1,224,352Zm0-64v16a16.01833,16.01833,0,0,1-16,16H88a16.01833,16.01833,0,0,1-16-16V288a16.01833,16.01833,0,0,1,16-16H208A16.01833,16.01833,0,0,1,224,288ZM88,256a16.01833,16.01833,0,0,1-16-16V224a16.01833,16.01833,0,0,1,16-16H208a16.01833,16.01833,0,0,1,16,16v16a16.01833,16.01833,0,0,1-16,16Z"/><circle cx="88" cy="232" r="8"/><circle cx="112" cy="232" r="8"/><circle cx="136" cy="232" r="8"/><rect x="160" y="224" width="48" height="16"/><path d="M424,232H360a32.03667,32.03667,0,0,0-32,32v48a32.03667,32.03667,0,0,0,32,32h64a32.03667,32.03667,0,0,0,32-32V264A32.03667,32.03667,0,0,0,424,232Zm16,32v4.30518A31.792,31.792,0,0,0,424,264H406.833a15.91089,15.91089,0,0,1-14.31055-8.84375l-2.7334-5.46777c-.28833-.57666-.6001-1.13526-.9187-1.68848H424A16.01833,16.01833,0,0,1,440,264Zm0,48a16.01833,16.01833,0,0,1-16,16H360a16.01833,16.01833,0,0,1-16-16V264a16.01833,16.01833,0,0,1,16-16h1.167a15.91089,15.91089,0,0,1,14.31055,8.84375l2.7334,5.46777A31.8263,31.8263,0,0,0,406.833,280H424a16.01833,16.01833,0,0,1,16,16Z"/><path d="M424,384H360a32.03667,32.03667,0,0,0-32,32v48a32.03667,32.03667,0,0,0,32,32h64a32.03667,32.03667,0,0,0,32-32V416A32.03667,32.03667,0,0,0,424,384Zm16,32v4.30518A31.792,31.792,0,0,0,424,416H406.833a15.91089,15.91089,0,0,1-14.31055-8.84375l-2.7334-5.46777c-.28833-.57666-.6001-1.13526-.9187-1.68848H424A16.01833,16.01833,0,0,1,440,416Zm0,48a16.01833,16.01833,0,0,1-16,16H360a16.01833,16.01833,0,0,1-16-16V416a16.01833,16.01833,0,0,1,16-16h1.167a15.91089,15.91089,0,0,1,14.31055,8.84375l2.7334,5.46777A31.8263,31.8263,0,0,0,406.833,432H424a16.01833,16.01833,0,0,1,16,16Z"/><path d="M248,280v16h24V448a8.00039,8.00039,0,0,0,8,8h32V440H288V296h24V280H248Z"/></symbol><symbol id="cloud-computing" viewBox="0 0 512.056 512.056"><title>cloud-computing</title><path d="M426.635,188.224C402.969,93.946,307.358,36.704,213.08,60.37C139.404,78.865,85.907,142.542,80.395,218.303 C28.082,226.93-7.333,276.331,1.294,328.644c7.669,46.507,47.967,80.566,95.101,80.379h80v-32h-80c-35.346,0-64-28.654-64-64 c0-35.346,28.654-64,64-64c8.837,0,16-7.163,16-16c-0.08-79.529,64.327-144.065,143.856-144.144 c68.844-0.069,128.107,48.601,141.424,116.144c1.315,6.744,6.788,11.896,13.6,12.8c43.742,6.229,74.151,46.738,67.923,90.479 c-5.593,39.278-39.129,68.523-78.803,68.721h-64v32h64c61.856-0.187,111.848-50.483,111.66-112.339 C511.899,245.194,476.655,200.443,426.635,188.224z"/><path d="M245.035,253.664l-64,64l22.56,22.56l36.8-36.64v153.44h32v-153.44l36.64,36.64l22.56-22.56l-64-64 C261.354,247.46,251.276,247.46,245.035,253.664z"/></symbol><symbol id="analysis" viewBox="0 0 480.182 480.182"><title>analysis</title><g> <g> <path d="M200.182,32.106c-92.784,0-168,75.216-168,168s75.216,168,168,168s168-75.216,168-168 C368.081,107.364,292.924,32.207,200.182,32.106z M200.182,48.106c49.416,0.039,95.723,24.123,124.128,64.56l-20,20 c-4.867-2.945-10.439-4.521-16.128-4.56c-17.673,0-32,14.327-32,32c0.028,5.695,1.595,11.276,4.536,16.152l-52.384,52.384 c-9.919-6.048-22.385-6.048-32.304,0l-36.384-36.384c2.941-4.876,4.508-10.457,4.536-16.152 c0.022-17.638-14.258-31.954-31.896-31.976c-14.587-0.018-27.332,9.849-30.968,23.976h-29.68 C66.785,98.159,128.614,48.211,200.182,48.106z M304.182,160.106c0,8.837-7.163,16-16,16s-16-7.163-16-16s7.163-16,16-16 S304.182,151.269,304.182,160.106z M208.182,256.106c0,8.837-7.163,16-16,16s-16-7.163-16-16c0-8.837,7.163-16,16-16 S208.182,247.269,208.182,256.106z M128.182,176.106c0,8.837-7.163,16-16,16s-16-7.163-16-16s7.163-16,16-16 S128.182,167.269,128.182,176.106z M274.036,333.012c-22.592,12.544-48.012,19.116-73.854,19.093 c-83.89,0.057-151.943-67.902-152-151.792c-0.004-5.414,0.282-10.825,0.856-16.208h32.28c3.637,14.085,16.317,23.945,30.864,24 c5.695-0.028,11.276-1.595,16.152-4.536l36.384,36.384c-2.941,4.876-4.508,10.457-4.536,16.152c0,17.673,14.327,32,32,32 s32-14.327,32-32c-0.028-5.695-1.595-11.276-4.536-16.152l52.384-52.384c4.876,2.941,10.457,4.508,16.152,4.536 c17.673,0,32-14.327,32-32c-0.028-5.695-1.595-11.276-4.536-16.152l17.44-17.432C373.801,199.849,347.363,292.298,274.036,333.012 z"/> </g> </g><g> <g> <path d="M400.182,80.106c14.547-0.055,27.227-9.914,30.864-24h49.136v-16h-49.136c-3.637-14.086-16.317-23.945-30.864-24 c-17.673,0-32,14.327-32,32c0.028,5.695,1.595,11.276,4.536,16.152l-14.056,14.056C291.407-9.307,165.855-25.817,78.234,41.438 S-25.897,234.246,41.358,321.867c63.484,82.707,179.855,102.77,267.368,46.095l24.144,24.144l11.312,11.312l64.4,64.4 c16.379,16.379,42.933,16.379,59.312,0c16.379-16.379,16.379-42.933,0-59.312l-64.4-64.4l-11.312-11.312l-24.144-24.144 c42.859-66.016,42.859-151.071,0-217.088l16-16C388.911,78.504,394.49,80.074,400.182,80.106z M400.182,32.106 c8.837,0,16,7.163,16,16s-7.163,16-16,16s-16-7.163-16-16S391.346,32.106,400.182,32.106z M456.582,419.818 c10.246,10.016,10.433,26.442,0.417,36.688c-10.016,10.246-26.442,10.433-36.688,0.417c-0.141-0.137-0.279-0.276-0.417-0.417 l-64.4-64.4l36.688-36.688L456.582,419.818z M380.87,344.106l-36.688,36.688l-22.144-22.144c1.128-0.864,2.184-1.816,3.296-2.704 s2.4-1.952,3.592-2.952c1.752-1.472,3.48-2.96,5.176-4.488c0.872-0.8,1.704-1.6,2.56-2.4c3.28-3.072,6.456-6.248,9.528-9.528 c0.8-0.856,1.6-1.688,2.4-2.56c1.528-1.696,3.016-3.424,4.488-5.176c1.003-1.184,1.987-2.381,2.952-3.592 c0.88-1.104,1.832-2.16,2.696-3.288L380.87,344.106z M349.846,306.946c-2.52,3.52-5.12,6.968-7.864,10.288 c-0.8,0.968-1.656,1.904-2.48,2.856c-2.448,2.848-4.976,5.611-7.584,8.288c-1.136,1.173-2.291,2.328-3.464,3.464 c-2.667,2.608-5.429,5.136-8.288,7.584c-0.952,0.8-1.888,1.672-2.856,2.48c-3.32,2.744-6.768,5.344-10.288,7.864 c-82.816,59.165-197.915,39.992-257.08-42.824S9.95,109.031,92.766,49.866S290.681,9.873,349.846,92.69 C395.627,156.772,395.627,242.864,349.846,306.946z"/> </g> </g></symbol><symbol id="cloud" viewBox="0 0 480.119 480.119"><title>cloud</title><g> <g> <path d="M423.239,120.119c-5.838-0.005-11.642,0.888-17.208,2.648c0.528-4.195,0.795-8.42,0.8-12.648 C405.792,48.272,354.813-1.023,292.965,0.016c-45.131,0.758-85.397,28.534-102.134,70.455 C158.463,50.4,115.953,60.37,95.883,92.738c-6.534,10.537-10.106,22.641-10.34,35.037c-8.714-5.031-18.602-7.673-28.664-7.656 c-30.928,0-56,25.072-56,56c0,30.928,25.072,56,56,56c4.418,0,8-3.582,8-8s-3.582-8-8-8 c-22.089-0.359-39.704-18.556-39.345-40.645c0.359-22.089,18.556-39.704,40.645-39.345c13.446,0.219,25.882,7.179,33.1,18.525 c2.42,3.697,7.378,4.732,11.075,2.313c3.195-2.091,4.467-6.148,3.037-9.689c-2.519-6.076-3.834-12.583-3.872-19.16 c0.321-28.992,24.048-52.253,53.04-52c12.918,0.051,25.38,4.78,35.08,13.312c3.33,2.904,8.384,2.558,11.287-0.772 c0.787-0.902,1.361-1.97,1.681-3.124c14.638-50.936,67.796-80.361,118.731-65.723c40.442,11.622,68.595,48.236,69.437,90.307 c-0.034,8.386-1.205,16.729-3.48,24.8c-1.183,4.257,1.308,8.667,5.565,9.85c2.303,0.64,4.772,0.217,6.731-1.154 c6.92-4.88,15.181-7.498,23.648-7.496c22.091,0,40,17.909,40,40s-17.909,40-40,40c-4.418,0-8,3.582-8,8s3.582,8,8,8 c30.928,0,56-25.072,56-56C479.239,145.191,454.167,120.119,423.239,120.119z"/> </g> </g><g> <g> <path d="M376.039,304.119h-272c-13.255,0-24,10.745-24,24v32c0,13.255,10.745,24,24,24h272c13.255,0,24-10.745,24-24v-32 C400.039,314.864,389.294,304.119,376.039,304.119z M384.039,360.119c0,4.418-3.582,8-8,8h-272c-4.418,0-8-3.582-8-8v-32 c0-4.418,3.582-8,8-8h272c4.418,0,8,3.582,8,8V360.119z"/> </g> </g><g> <g> <path d="M353.847,328.615c-8.525,0.053-15.408,6.978-15.408,15.503c0.04,8.584,7.016,15.517,15.6,15.504 c8.563-0.053,15.461-7.037,15.408-15.6C369.394,335.46,362.41,328.562,353.847,328.615z M354.039,344.623 c-0.24,0-0.4-0.264-0.4-0.504l0.4-0.496V344.623z"/> </g> </g><g> <g> <path d="M270.439,336.119h-152c-4.418,0-8,3.582-8,8s3.582,8,8,8h152c4.418,0,8-3.582,8-8S274.858,336.119,270.439,336.119z"/> </g> </g><g> <g> <path d="M319.839,336.119h-21.28c-4.418,0-8,3.582-8,8s3.582,8,8,8h21.28c4.418,0,8-3.582,8-8S324.258,336.119,319.839,336.119z"/> </g> </g><g> <g> <path d="M376.039,400.119h-272c-13.255,0-24,10.745-24,24v32c0,13.255,10.745,24,24,24h272c13.255,0,24-10.745,24-24v-32 C400.039,410.864,389.294,400.119,376.039,400.119z M384.039,456.119c0,4.418-3.582,8-8,8h-272c-4.418,0-8-3.582-8-8v-32 c0-4.418,3.582-8,8-8h272c4.418,0,8,3.582,8,8V456.119z"/> </g> </g><g> <g> <path d="M353.847,424.615c-8.525,0.053-15.408,6.978-15.408,15.503c0.04,8.584,7.016,15.517,15.6,15.504 c8.563-0.053,15.461-7.037,15.408-15.6C369.394,431.46,362.41,424.562,353.847,424.615z M354.039,440.623 c-0.24,0-0.4-0.264-0.4-0.504l0.4-0.496V440.623z"/> </g> </g><g> <g> <path d="M270.439,432.119h-152c-4.418,0-8,3.582-8,8s3.582,8,8,8h152c4.418,0,8-3.582,8-8S274.858,432.119,270.439,432.119z"/> </g> </g><g> <g> <path d="M319.839,432.119h-21.28c-4.418,0-8,3.582-8,8s3.582,8,8,8h21.28c4.418,0,8-3.582,8-8S324.258,432.119,319.839,432.119z"/> </g> </g><g> <g> <path d="M376.039,208.119h-272c-13.255,0-24,10.745-24,24v32c0,13.255,10.745,24,24,24h272c13.255,0,24-10.745,24-24v-32 C400.039,218.864,389.294,208.119,376.039,208.119z M384.039,264.119c0,4.418-3.582,8-8,8h-272c-4.418,0-8-3.582-8-8v-32 c0-4.418,3.582-8,8-8h272c4.418,0,8,3.582,8,8V264.119z"/> </g> </g><g> <g> <path d="M366.935,245.935c-1.542-8.499-9.681-14.139-18.18-12.597c-4.027,0.73-7.607,3.01-9.972,6.349 c-2.375,3.352-3.303,7.517-2.576,11.56c1.346,7.447,7.825,12.865,15.392,12.872c0.874-0.001,1.746-0.073,2.608-0.216 c4.108-0.678,7.769-2.986,10.152-6.4C366.742,254.151,367.671,249.98,366.935,245.935z M351.191,248.751l0.36-0.632l0.04,1 C351.231,249.119,351.207,248.919,351.191,248.751z"/> </g> </g><g> <g> <path d="M268.839,240.119h-152c-4.418,0-8,3.582-8,8s3.582,8,8,8h152c4.418,0,8-3.582,8-8S273.258,240.119,268.839,240.119z"/> </g> </g><g> <g> <path d="M314.727,240.119h-21.28c-4.418,0-8,3.582-8,8s3.582,8,8,8h21.28c4.418,0,8-3.582,8-8S319.146,240.119,314.727,240.119z"/> </g> </g><g> <g> <path d="M205.695,130.463l-24-24c-3.124-3.123-8.188-3.123-11.312,0l-24,24c-3.069,3.178-2.981,8.243,0.197,11.312 c3.1,2.994,8.015,2.994,11.115,0l10.344-10.344v52.688c0,4.418,3.582,8,8,8s8-3.582,8-8v-52.688l10.344,10.344 c3.178,3.069,8.243,2.981,11.312-0.197C208.689,138.478,208.689,133.563,205.695,130.463z"/> </g> </g><g> <g> <path d="M333.499,154.463c-3.1-2.994-8.015-2.994-11.116,0l-10.344,10.344v-52.688c0-4.418-3.582-8-8-8s-8,3.582-8,8v52.688 l-10.344-10.344c-3.178-3.07-8.242-2.982-11.312,0.196c-2.994,3.1-2.994,8.015,0,11.116l24,24c3.124,3.123,8.188,3.123,11.312,0 l24-24C336.765,162.597,336.677,157.532,333.499,154.463z"/> </g> </g></symbol><symbol id="secure-folder" viewBox="0 0 512 512"><title>secure-folder</title><path d="M501.23,106.623H266.24l-30.986-58.259c-1.87-3.516-5.527-5.714-9.509-5.714H10.77C4.823,42.65,0,47.473,0,53.42v405.16 c0,5.946,4.823,10.77,10.77,10.77h490.46c5.947,0,10.77-4.824,10.77-10.77V117.393C512,111.446,507.177,106.623,501.23,106.623z M21.54,447.811V64.191h197.734l30.986,58.26c1.87,3.515,5.527,5.712,9.509,5.712h230.69v319.647H21.54z"/><path d="M163.34,106.842h0.255c5.948,0,10.77-4.822,10.77-10.77c0-5.947-4.822-10.77-10.77-10.77h-0.255 c-5.947,0-10.77,4.823-10.77,10.77C152.57,102.021,157.393,106.842,163.34,106.842z"/><path d="M132.711,85.299H53.417c-5.947,0-10.77,4.823-10.77,10.77c0,5.948,4.823,10.77,10.77,10.77h79.294 c5.947,0,10.77-4.822,10.77-10.77C143.481,90.122,138.658,85.299,132.711,85.299z"/><path d="M358.173,202.366c-32.76-8.975-67.102-23.54-96.698-41.013c-3.378-1.994-7.572-1.994-10.951,0 c-30.889,18.236-62.52,31.651-96.697,41.013c-4.681,1.282-7.925,5.536-7.925,10.388v52.666c0,56.184,25.936,93.39,47.693,114.708 c25.059,24.552,52.051,35.989,62.405,35.989s37.347-11.437,62.405-35.989c21.756-21.318,47.693-58.524,47.693-114.708v-52.666 C366.097,207.902,362.852,203.649,358.173,202.366z M344.558,265.42c0,48.076-21.891,80.024-40.255,98.359 c-21.746,21.712-43.863,30.273-48.303,30.787c-4.44-0.514-26.557-9.075-48.303-30.787 c-18.364-18.335-40.255-50.283-40.255-98.359v-44.532c31.039-9.147,60.141-21.571,88.562-37.809 c27.799,15.83,58.146,28.782,88.555,37.802V265.42z"/><path d="M210.851,280.607c-4.207-4.206-11.024-4.206-15.232,0c-4.206,4.206-4.206,11.025,0,15.231l35.021,35.021 c2.103,2.103,4.859,3.155,7.615,3.155s5.512-1.051,7.615-3.155l70.513-70.512c4.206-4.206,4.206-11.025,0-15.232 c-4.206-4.206-11.023-4.205-15.232,0l-62.897,62.897L210.851,280.607z"/><path d="M380.647,405.166h-0.256c-5.947,0-10.77,4.822-10.77,10.77c0,5.947,4.823,10.77,10.77,10.77h0.256 c5.947,0,10.77-4.824,10.77-10.77C391.417,409.988,386.594,405.166,380.647,405.166z"/><path d="M458.579,405.164h-47.302c-5.948,0-10.77,4.822-10.77,10.77c0,5.947,4.823,10.77,10.77,10.77h47.302 c5.947,0,10.77-4.823,10.77-10.77C469.349,409.986,464.526,405.164,458.579,405.164z"/></symbol></svg>