<svg xmlns="http://www.w3.org/2000/svg" style="display: none;"><symbol id="facebook" viewBox="0 0 112.196 112.196"><title>facebook</title><circle style="fill:#3B5998;" cx="56.098" cy="56.098" r="56.098"/><path style="fill:#FFFFFF;" d="M70.201,58.294h-10.01v36.672H45.025V58.294h-7.213V45.406h7.213v-8.34 c0-5.964,2.833-15.303,15.301-15.303L71.56,21.81v12.51h-8.151c-1.337,0-3.217,0.668-3.217,3.513v7.585h11.334L70.201,58.294z"/></symbol><symbol id="netflix" viewBox="0 0 512 512"><title>netflix</title><g> <rect x="304" style="fill:#D32F2F;" width="96" height="512"/> <rect x="112" style="fill:#D32F2F;" width="96" height="512"/> </g><polygon style="fill:#F44336;" points="400,512 304,512 112,0 208,0 "/></symbol><symbol id="cloud" viewBox="0 0 480.119 480.119"><title>cloud</title><g> <g> <path d="M423.239,120.119c-5.838-0.005-11.642,0.888-17.208,2.648c0.528-4.195,0.795-8.42,0.8-12.648 C405.792,48.272,354.813-1.023,292.965,0.016c-45.131,0.758-85.397,28.534-102.134,70.455 C158.463,50.4,115.953,60.37,95.883,92.738c-6.534,10.537-10.106,22.641-10.34,35.037c-8.714-5.031-18.602-7.673-28.664-7.656 c-30.928,0-56,25.072-56,56c0,30.928,25.072,56,56,56c4.418,0,8-3.582,8-8s-3.582-8-8-8 c-22.089-0.359-39.704-18.556-39.345-40.645c0.359-22.089,18.556-39.704,40.645-39.345c13.446,0.219,25.882,7.179,33.1,18.525 c2.42,3.697,7.378,4.732,11.075,2.313c3.195-2.091,4.467-6.148,3.037-9.689c-2.519-6.076-3.834-12.583-3.872-19.16 c0.321-28.992,24.048-52.253,53.04-52c12.918,0.051,25.38,4.78,35.08,13.312c3.33,2.904,8.384,2.558,11.287-0.772 c0.787-0.902,1.361-1.97,1.681-3.124c14.638-50.936,67.796-80.361,118.731-65.723c40.442,11.622,68.595,48.236,69.437,90.307 c-0.034,8.386-1.205,16.729-3.48,24.8c-1.183,4.257,1.308,8.667,5.565,9.85c2.303,0.64,4.772,0.217,6.731-1.154 c6.92-4.88,15.181-7.498,23.648-7.496c22.091,0,40,17.909,40,40s-17.909,40-40,40c-4.418,0-8,3.582-8,8s3.582,8,8,8 c30.928,0,56-25.072,56-56C479.239,145.191,454.167,120.119,423.239,120.119z"/> </g> </g><g> <g> <path d="M376.039,304.119h-272c-13.255,0-24,10.745-24,24v32c0,13.255,10.745,24,24,24h272c13.255,0,24-10.745,24-24v-32 C400.039,314.864,389.294,304.119,376.039,304.119z M384.039,360.119c0,4.418-3.582,8-8,8h-272c-4.418,0-8-3.582-8-8v-32 c0-4.418,3.582-8,8-8h272c4.418,0,8,3.582,8,8V360.119z"/> </g> </g><g> <g> <path d="M353.847,328.615c-8.525,0.053-15.408,6.978-15.408,15.503c0.04,8.584,7.016,15.517,15.6,15.504 c8.563-0.053,15.461-7.037,15.408-15.6C369.394,335.46,362.41,328.562,353.847,328.615z M354.039,344.623 c-0.24,0-0.4-0.264-0.4-0.504l0.4-0.496V344.623z"/> </g> </g><g> <g> <path d="M270.439,336.119h-152c-4.418,0-8,3.582-8,8s3.582,8,8,8h152c4.418,0,8-3.582,8-8S274.858,336.119,270.439,336.119z"/> </g> </g><g> <g> <path d="M319.839,336.119h-21.28c-4.418,0-8,3.582-8,8s3.582,8,8,8h21.28c4.418,0,8-3.582,8-8S324.258,336.119,319.839,336.119z"/> </g> </g><g> <g> <path d="M376.039,400.119h-272c-13.255,0-24,10.745-24,24v32c0,13.255,10.745,24,24,24h272c13.255,0,24-10.745,24-24v-32 C400.039,410.864,389.294,400.119,376.039,400.119z M384.039,456.119c0,4.418-3.582,8-8,8h-272c-4.418,0-8-3.582-8-8v-32 c0-4.418,3.582-8,8-8h272c4.418,0,8,3.582,8,8V456.119z"/> </g> </g><g> <g> <path d="M353.847,424.615c-8.525,0.053-15.408,6.978-15.408,15.503c0.04,8.584,7.016,15.517,15.6,15.504 c8.563-0.053,15.461-7.037,15.408-15.6C369.394,431.46,362.41,424.562,353.847,424.615z M354.039,440.623 c-0.24,0-0.4-0.264-0.4-0.504l0.4-0.496V440.623z"/> </g> </g><g> <g> <path d="M270.439,432.119h-152c-4.418,0-8,3.582-8,8s3.582,8,8,8h152c4.418,0,8-3.582,8-8S274.858,432.119,270.439,432.119z"/> </g> </g><g> <g> <path d="M319.839,432.119h-21.28c-4.418,0-8,3.582-8,8s3.582,8,8,8h21.28c4.418,0,8-3.582,8-8S324.258,432.119,319.839,432.119z"/> </g> </g><g> <g> <path d="M376.039,208.119h-272c-13.255,0-24,10.745-24,24v32c0,13.255,10.745,24,24,24h272c13.255,0,24-10.745,24-24v-32 C400.039,218.864,389.294,208.119,376.039,208.119z M384.039,264.119c0,4.418-3.582,8-8,8h-272c-4.418,0-8-3.582-8-8v-32 c0-4.418,3.582-8,8-8h272c4.418,0,8,3.582,8,8V264.119z"/> </g> </g><g> <g> <path d="M366.935,245.935c-1.542-8.499-9.681-14.139-18.18-12.597c-4.027,0.73-7.607,3.01-9.972,6.349 c-2.375,3.352-3.303,7.517-2.576,11.56c1.346,7.447,7.825,12.865,15.392,12.872c0.874-0.001,1.746-0.073,2.608-0.216 c4.108-0.678,7.769-2.986,10.152-6.4C366.742,254.151,367.671,249.98,366.935,245.935z M351.191,248.751l0.36-0.632l0.04,1 C351.231,249.119,351.207,248.919,351.191,248.751z"/> </g> </g><g> <g> <path d="M268.839,240.119h-152c-4.418,0-8,3.582-8,8s3.582,8,8,8h152c4.418,0,8-3.582,8-8S273.258,240.119,268.839,240.119z"/> </g> </g><g> <g> <path d="M314.727,240.119h-21.28c-4.418,0-8,3.582-8,8s3.582,8,8,8h21.28c4.418,0,8-3.582,8-8S319.146,240.119,314.727,240.119z"/> </g> </g><g> <g> <path d="M205.695,130.463l-24-24c-3.124-3.123-8.188-3.123-11.312,0l-24,24c-3.069,3.178-2.981,8.243,0.197,11.312 c3.1,2.994,8.015,2.994,11.115,0l10.344-10.344v52.688c0,4.418,3.582,8,8,8s8-3.582,8-8v-52.688l10.344,10.344 c3.178,3.069,8.243,2.981,11.312-0.197C208.689,138.478,208.689,133.563,205.695,130.463z"/> </g> </g><g> <g> <path d="M333.499,154.463c-3.1-2.994-8.015-2.994-11.116,0l-10.344,10.344v-52.688c0-4.418-3.582-8-8-8s-8,3.582-8,8v52.688 l-10.344-10.344c-3.178-3.07-8.242-2.982-11.312,0.196c-2.994,3.1-2.994,8.015,0,11.116l24,24c3.124,3.123,8.188,3.123,11.312,0 l24-24C336.765,162.597,336.677,157.532,333.499,154.463z"/> </g> </g></symbol><symbol id="analysis" viewBox="0 0 480.182 480.182"><title>analysis</title><g> <g> <path d="M200.182,32.106c-92.784,0-168,75.216-168,168s75.216,168,168,168s168-75.216,168-168 C368.081,107.364,292.924,32.207,200.182,32.106z M200.182,48.106c49.416,0.039,95.723,24.123,124.128,64.56l-20,20 c-4.867-2.945-10.439-4.521-16.128-4.56c-17.673,0-32,14.327-32,32c0.028,5.695,1.595,11.276,4.536,16.152l-52.384,52.384 c-9.919-6.048-22.385-6.048-32.304,0l-36.384-36.384c2.941-4.876,4.508-10.457,4.536-16.152 c0.022-17.638-14.258-31.954-31.896-31.976c-14.587-0.018-27.332,9.849-30.968,23.976h-29.68 C66.785,98.159,128.614,48.211,200.182,48.106z M304.182,160.106c0,8.837-7.163,16-16,16s-16-7.163-16-16s7.163-16,16-16 S304.182,151.269,304.182,160.106z M208.182,256.106c0,8.837-7.163,16-16,16s-16-7.163-16-16c0-8.837,7.163-16,16-16 S208.182,247.269,208.182,256.106z M128.182,176.106c0,8.837-7.163,16-16,16s-16-7.163-16-16s7.163-16,16-16 S128.182,167.269,128.182,176.106z M274.036,333.012c-22.592,12.544-48.012,19.116-73.854,19.093 c-83.89,0.057-151.943-67.902-152-151.792c-0.004-5.414,0.282-10.825,0.856-16.208h32.28c3.637,14.085,16.317,23.945,30.864,24 c5.695-0.028,11.276-1.595,16.152-4.536l36.384,36.384c-2.941,4.876-4.508,10.457-4.536,16.152c0,17.673,14.327,32,32,32 s32-14.327,32-32c-0.028-5.695-1.595-11.276-4.536-16.152l52.384-52.384c4.876,2.941,10.457,4.508,16.152,4.536 c17.673,0,32-14.327,32-32c-0.028-5.695-1.595-11.276-4.536-16.152l17.44-17.432C373.801,199.849,347.363,292.298,274.036,333.012 z"/> </g> </g><g> <g> <path d="M400.182,80.106c14.547-0.055,27.227-9.914,30.864-24h49.136v-16h-49.136c-3.637-14.086-16.317-23.945-30.864-24 c-17.673,0-32,14.327-32,32c0.028,5.695,1.595,11.276,4.536,16.152l-14.056,14.056C291.407-9.307,165.855-25.817,78.234,41.438 S-25.897,234.246,41.358,321.867c63.484,82.707,179.855,102.77,267.368,46.095l24.144,24.144l11.312,11.312l64.4,64.4 c16.379,16.379,42.933,16.379,59.312,0c16.379-16.379,16.379-42.933,0-59.312l-64.4-64.4l-11.312-11.312l-24.144-24.144 c42.859-66.016,42.859-151.071,0-217.088l16-16C388.911,78.504,394.49,80.074,400.182,80.106z M400.182,32.106 c8.837,0,16,7.163,16,16s-7.163,16-16,16s-16-7.163-16-16S391.346,32.106,400.182,32.106z M456.582,419.818 c10.246,10.016,10.433,26.442,0.417,36.688c-10.016,10.246-26.442,10.433-36.688,0.417c-0.141-0.137-0.279-0.276-0.417-0.417 l-64.4-64.4l36.688-36.688L456.582,419.818z M380.87,344.106l-36.688,36.688l-22.144-22.144c1.128-0.864,2.184-1.816,3.296-2.704 s2.4-1.952,3.592-2.952c1.752-1.472,3.48-2.96,5.176-4.488c0.872-0.8,1.704-1.6,2.56-2.4c3.28-3.072,6.456-6.248,9.528-9.528 c0.8-0.856,1.6-1.688,2.4-2.56c1.528-1.696,3.016-3.424,4.488-5.176c1.003-1.184,1.987-2.381,2.952-3.592 c0.88-1.104,1.832-2.16,2.696-3.288L380.87,344.106z M349.846,306.946c-2.52,3.52-5.12,6.968-7.864,10.288 c-0.8,0.968-1.656,1.904-2.48,2.856c-2.448,2.848-4.976,5.611-7.584,8.288c-1.136,1.173-2.291,2.328-3.464,3.464 c-2.667,2.608-5.429,5.136-8.288,7.584c-0.952,0.8-1.888,1.672-2.856,2.48c-3.32,2.744-6.768,5.344-10.288,7.864 c-82.816,59.165-197.915,39.992-257.08-42.824S9.95,109.031,92.766,49.866S290.681,9.873,349.846,92.69 C395.627,156.772,395.627,242.864,349.846,306.946z"/> </g> </g></symbol><symbol id="cloud-computing" viewBox="0 0 512.056 512.056"><title>cloud-computing</title><path d="M426.635,188.224C402.969,93.946,307.358,36.704,213.08,60.37C139.404,78.865,85.907,142.542,80.395,218.303 C28.082,226.93-7.333,276.331,1.294,328.644c7.669,46.507,47.967,80.566,95.101,80.379h80v-32h-80c-35.346,0-64-28.654-64-64 c0-35.346,28.654-64,64-64c8.837,0,16-7.163,16-16c-0.08-79.529,64.327-144.065,143.856-144.144 c68.844-0.069,128.107,48.601,141.424,116.144c1.315,6.744,6.788,11.896,13.6,12.8c43.742,6.229,74.151,46.738,67.923,90.479 c-5.593,39.278-39.129,68.523-78.803,68.721h-64v32h64c61.856-0.187,111.848-50.483,111.66-112.339 C511.899,245.194,476.655,200.443,426.635,188.224z"/><path d="M245.035,253.664l-64,64l22.56,22.56l36.8-36.64v153.44h32v-153.44l36.64,36.64l22.56-22.56l-64-64 C261.354,247.46,251.276,247.46,245.035,253.664z"/></symbol><symbol id="ibm" viewBox="0 0 512 512"><title>ibm</title><g> <g> <path d="M131.87,175.873H56.369c-0.383,0-0.693,0.31-0.693,0.693v9.496c0,0.428,0.347,0.775,0.775,0.775h75.729 c0.818,0,1.481-0.663,1.481-1.481v-7.691C133.661,176.675,132.859,175.873,131.87,175.873z"/> </g> </g><g> <g> <path d="M133.161,325.164H57.174c-0.49,0-0.887,0.397-0.887,0.887v9.03c0.001,0.578,0.47,1.047,1.048,1.047h75.853 c0.599,0,1.085-0.486,1.085-1.085v-8.767C134.273,325.662,133.775,325.164,133.161,325.164z"/> </g> </g><g> <g> <path d="M261.777,239.855h-93.561c-0.605,0-1.095,0.49-1.095,1.095v8.886h-0.001c0,0.543,0.44,0.983,0.983,0.983h84.594 c0.453,0,0.888-0.154,1.238-0.443c1.59-1.316,6.241-5.367,8.462-9.479C262.651,240.426,262.312,239.855,261.777,239.855z"/> </g> </g><g> <g> <path d="M131.594,197.194H57.631c-1.08,0-1.955,0.875-1.955,1.955v7.23c0,0.982,0.796,1.779,1.779,1.779h74.064 c1.183,0,2.142-0.959,2.142-2.142v-6.754C133.662,198.12,132.736,197.194,131.594,197.194z"/> </g> </g><g> <g> <path d="M110.845,282.503h-31.66v0c-0.607,0-1.099,0.492-1.099,1.099v8.638c0,0.677,0.549,1.227,1.227,1.227h31.592 c0.529,0,0.958-0.429,0.958-0.958v-8.989C111.863,282.959,111.407,282.503,110.845,282.503z"/> </g> </g><g> <g> <path d="M110.376,239.854H79.591c-0.831,0-1.505,0.674-1.505,1.505v8.076c0,0.763,0.619,1.382,1.383,1.382h30.947 c0.799,0,1.447-0.648,1.447-1.447v-8.029C111.863,240.52,111.197,239.854,110.376,239.854z"/> </g> </g><g> <g> <path d="M111.863,219.879c0-0.753-0.611-1.364-1.364-1.364h-31.28c-0.625,0-1.132,0.507-1.132,1.132v8.585 c0,0.698,0.566,1.264,1.264,1.264h31.642c0.481,0,0.871-0.39,0.871-0.871L111.863,219.879L111.863,219.879z"/> </g> </g><g> <g> <path d="M199.883,282.502h-31.428c-0.737,0-1.334,0.597-1.334,1.334v8.418h-0.001c0,0.67,0.543,1.212,1.212,1.212h31.36 c0.662,0,1.199-0.537,1.199-1.199v-8.758C200.891,282.953,200.44,282.502,199.883,282.502z"/> </g> </g><g> <g> <path d="M111.863,262.505c0-0.731-0.593-1.324-1.324-1.324H79.387c-0.718,0-1.3,0.582-1.3,1.3v8.159 c0,0.831,0.673,1.504,1.504,1.504h30.662c0.889,0,1.611-0.721,1.611-1.611L111.863,262.505L111.863,262.505z"/> </g> </g><g> <g> <path d="M199.809,218.516h-31.58c-0.612,0-1.107,0.496-1.107,1.107v8.426c-0.002,0.8,0.646,1.448,1.446,1.448h31.4 c0.51,0,0.924-0.414,0.924-0.924v-8.974C200.892,219.001,200.407,218.516,199.809,218.516z"/> </g> </g><g> <g> <path d="M262.437,271.183c-2.141-4.011-6.641-8-8.362-9.441c-0.436-0.365-0.981-0.562-1.55-0.562h-84.318 c-0.601,0-1.088,0.487-1.088,1.088v8.669h0.001c0,0.667,0.541,1.208,1.208,1.208h93.539 C262.36,272.146,262.669,271.619,262.437,271.183z"/> </g> </g><g> <g> <path d="M433.019,218.515H378.36c-0.373,0-0.707,0.234-0.835,0.585l-3.354,9.204c-0.211,0.58,0.218,1.193,0.835,1.193h58.013 c0.491,0,0.889-0.398,0.889-0.889v-9.204C433.908,218.913,433.51,218.515,433.019,218.515z"/> </g> </g><g> <g> <path d="M454.823,197.21h-69.088c-0.381,0-0.72,0.244-0.842,0.605l-3.096,9.171c-0.194,0.576,0.234,1.173,0.842,1.173h72.184 c0.491,0,0.889-0.398,0.889-0.889v-9.171C455.712,197.608,455.314,197.21,454.823,197.21z"/> </g> </g><g> <g> <path d="M454.823,175.873h-61.122c-0.374,0-0.707,0.234-0.835,0.585l-3.344,9.187c-0.211,0.58,0.218,1.193,0.835,1.193h64.466 c0.491,0,0.889-0.398,0.889-0.889v-9.187C455.712,176.27,455.314,175.873,454.823,175.873z"/> </g> </g><g> <g> <path d="M359.503,228.304l-3.344-9.204c-0.128-0.351-0.461-0.585-0.835-0.585h-53.945c-0.729,0-1.319,0.591-1.319,1.319v8.003 c0,0.916,0.743,1.659,1.659,1.659h56.949C359.285,229.496,359.714,228.883,359.503,228.304z"/> </g> </g><g> <g> <path d="M265.345,197.914c-0.318-0.455-0.856-0.704-1.411-0.704H146.08c-0.756,0-1.37,0.614-1.37,1.37v8.314 c0,0.698,0.566,1.264,1.264,1.264h121.679c0.57,0,0.996-0.521,0.881-1.079C268.098,204.961,266.993,200.267,265.345,197.914z"/> </g> </g><g> <g> <path d="M344.445,185.643l-3.344-9.187c-0.128-0.351-0.461-0.585-0.835-0.585h-61.401c-0.675,0-1.222,0.547-1.222,1.222v8.497 c0,0.688,0.558,1.246,1.246,1.246h64.721C344.227,186.836,344.656,186.223,344.445,185.643z"/> </g> </g><g> <g> <path d="M254.444,185.616c-3.471-2.857-13.072-9.744-24.987-9.744h-83.553c-0.66,0-1.195,0.535-1.195,1.195v8.383 c0,0.765,0.62,1.385,1.385,1.385H254C254.648,186.836,254.944,186.028,254.444,185.616z"/> </g> </g><g> <g> <path d="M371.195,325.164h-7.646c-0.252,0-0.428,0.25-0.343,0.487l3.737,10.449l0.669,0.011l3.844-10.574 C371.523,325.356,371.388,325.164,371.195,325.164z"/> </g> </g><g> <g> <path d="M393.058,261.182h-51.819c-0.62,0-1.049,0.619-0.832,1.199l3.43,9.187c0.13,0.347,0.462,0.578,0.833,0.578h45.14 c0.375,0,0.711-0.237,0.837-0.592l3.249-9.187C394.101,261.789,393.672,261.182,393.058,261.182z"/> </g> </g><g> <g> <path d="M385.403,282.503H348.9c-0.616,0-1.045,0.611-0.836,1.19l3.315,9.187c0.127,0.352,0.461,0.587,0.836,0.587h29.844 c0.374,0.001,0.708-0.233,0.835-0.584l3.344-9.187C386.449,283.116,386.02,282.503,385.403,282.503z"/> </g> </g><g> <g> <path d="M433.02,239.854h-61.881c-0.375,0-0.709,0.234-0.836,0.586l-2.321,6.4c-0.283,0.78-1.387,0.781-1.67,0.001l-2.329-6.402 c-0.128-0.351-0.461-0.585-0.835-0.585h-61.73c-0.75,0-1.359,0.608-1.359,1.359v8.077c0,0.844,0.684,1.528,1.528,1.528h31.35 c0.491,0,0.889-0.398,0.889-0.889c0-1,1.396-1.238,1.727-0.294l0.207,0.589c0.125,0.356,0.461,0.594,0.838,0.594h60.629 c0.37,0,0.701-0.229,0.831-0.575l0.365-0.967c0.349-0.925,1.72-0.675,1.72,0.314v0.339c0,0.491,0.398,0.889,0.889,0.889h31.988 c0.491,0,0.889-0.398,0.889-0.889v-9.187C433.909,240.253,433.511,239.854,433.02,239.854z"/> </g> </g><g> <g> <path d="M377.77,303.825h-21.182c-0.619,0-1.048,0.617-0.833,1.198l3.412,9.204c0.129,0.348,0.462,0.58,0.833,0.58h14.578 c0.378-0.001,0.715-0.241,0.839-0.598l3.193-9.204C378.81,304.428,378.382,303.825,377.77,303.825z"/> </g> </g><g> <g> <path d="M433.019,261.181h-31.988c-0.491,0-0.889,0.398-0.889,0.889v9.187c0,0.492,0.398,0.889,0.889,0.889h31.988 c0.491,0,0.889-0.398,0.889-0.889v-9.187C433.908,261.579,433.51,261.181,433.019,261.181z"/> </g> </g><g> <g> <path d="M133.461,303.824H57.093c-0.445,0-0.805,0.361-0.805,0.805v9.101c0,0.594,0.481,1.075,1.075,1.075h76.173 c0.407,0,0.737-0.33,0.737-0.737v-9.432C134.273,304.188,133.91,303.824,133.461,303.824z"/> </g> </g><g> <g> <path d="M455.435,325.164H401.03c-0.491,0-0.889,0.398-0.889,0.889v9.187c0,0.491,0.398,0.889,0.889,0.889h54.404 c0.491,0,0.889-0.398,0.889-0.889v-9.187C456.324,325.562,455.926,325.164,455.435,325.164z"/> </g> </g><g> <g> <path d="M433.019,282.503h-31.988c-0.491,0-0.889,0.398-0.889,0.889v9.187c0,0.491,0.398,0.889,0.889,0.889h31.988 c0.491,0,0.889-0.398,0.889-0.889v-9.187C433.908,282.901,433.51,282.503,433.019,282.503z"/> </g> </g><g> <g> <path d="M332.936,261.181h-31.39c-0.821,0-1.487,0.666-1.487,1.487v7.785c0,0.934,0.757,1.691,1.691,1.691h31.186 c0.491,0,0.889-0.398,0.889-0.889v-9.186C333.825,261.579,333.427,261.181,332.936,261.181z"/> </g> </g><g> <g> <path d="M455.435,303.824H401.03c-0.491,0-0.889,0.398-0.889,0.889v9.204c0,0.491,0.398,0.889,0.889,0.889h54.404 c0.491,0,0.889-0.398,0.889-0.889v-9.204C456.324,304.222,455.926,303.824,455.435,303.824z"/> </g> </g><g> <g> <path d="M268.937,218.515h-34.218c-0.538,0-0.974,0.436-0.974,0.974v9.067c0,0.519,0.421,0.94,0.94,0.94h32.143 c0.417,0,0.788-0.263,0.92-0.66c0.52-1.566,1.759-5.673,1.901-9.599C269.662,218.842,269.334,218.515,268.937,218.515z"/> </g> </g><g> <g> <path d="M267.793,283.303c-0.157-0.48-0.603-0.8-1.109-0.8h-31.582c-0.75,0-1.358,0.608-1.358,1.358v8.059 c0,0.855,0.693,1.548,1.548,1.548h33.35c0.575,0,1.02-0.486,0.991-1.06C269.441,288.704,268.321,284.912,267.793,283.303z"/> </g> </g><g> <g> <path d="M267.964,303.824H145.682c-0.537,0-0.972,0.435-0.972,0.972v9.049c0,0.53,0.43,0.96,0.96,0.96h118.478 c0.421,0.001,0.817-0.191,1.069-0.527c1.807-2.41,2.987-7.701,3.38-9.684C268.676,304.194,268.371,303.824,267.964,303.824z"/> </g> </g><g> <g> <path d="M254.291,325.164H145.826c-0.616,0-1.116,0.5-1.116,1.116v8.813c0,0.562,0.456,1.018,1.018,1.018h83.73 c12.186,0,21.95-7.191,25.214-9.917C255.09,325.844,254.837,325.164,254.291,325.164z"/> </g> </g><g> <g> <path d="M351.853,206.986l-3.096-9.171c-0.122-0.361-0.461-0.604-0.842-0.604H279.03c-0.766,0-1.387,0.621-1.387,1.387v8.362 c0,0.661,0.536,1.198,1.198,1.198h72.17C351.619,208.159,352.047,207.562,351.853,206.986z"/> </g> </g><g> <g> <path d="M333.825,304.51c0-0.379-0.307-0.686-0.686-0.686h-53.742c-0.63,0-1.141,0.511-1.141,1.141v8.545 c0,0.716,0.58,1.296,1.296,1.296h53.587c0.379,0,0.686-0.307,0.686-0.686L333.825,304.51L333.825,304.51z"/> </g> </g><g> <g> <path d="M332.936,282.502h-31.342c-0.848,0-1.536,0.688-1.536,1.536v7.952c0,0.815,0.661,1.476,1.476,1.476h31.401 c0.491,0,0.889-0.398,0.889-0.889v-9.187h0.001C333.825,282.9,333.427,282.502,332.936,282.502z"/> </g> </g><g> <g> <path d="M333.192,325.163h-53.787v0.001c-0.635,0-1.149,0.515-1.149,1.149v8.692c0,0.62,0.503,1.122,1.122,1.122h53.951 c0.274,0,0.495-0.222,0.495-0.495v-9.837C333.824,325.446,333.541,325.163,333.192,325.163z"/> </g> </g><g> <g> <path d="M492.499,0H273.501c-4.143,0-7.5,3.357-7.5,7.5s3.357,7.5,7.5,7.5h218.997c2.439,0,4.5,2.061,4.5,4.5v218.997 c0,4.143,3.357,7.5,7.5,7.5c4.143,0,7.5-3.357,7.5-7.5V19.501C512,8.749,503.251,0,492.499,0z"/> </g> </g><g> <g> <path d="M504.5,266c-4.143,0-7.5,3.357-7.5,7.5v218.997c0,2.439-2.061,4.5-4.5,4.5H19.501c-2.439,0-4.5-2.061-4.5-4.5V19.501 c0-2.439,2.061-4.5,4.5-4.5h218.997c4.143,0,7.5-3.357,7.5-7.5s-3.357-7.5-7.5-7.5H19.501C8.749,0,0,8.749,0,19.501v472.998 C0,503.251,8.749,512,19.501,512h472.998c10.753,0,19.501-8.749,19.501-19.501V273.501C512,269.358,508.642,266,504.5,266z"/> </g> </g></symbol><symbol id="infrastructure" viewBox="0 0 512 512"><title>infrastructure</title><path d="M472.249,152.78809a95.98713,95.98713,0,0,0-53.3789-30.90308C402.11865,60.92139,346.21143,16,280,16A144.01978,144.01978,0,0,0,158.91406,82.0249a55.98613,55.98613,0,0,0-69.293,40.615,96.00716,96.00716,0,0,0-51.6748,154.45386l12.33594-10.1875A80.00383,80.00383,0,0,1,112,136c2.42969,0,4.87988.10938,7.28223.32617l1.43554-15.93555C117.83984,120.13184,114.90625,120,112,120q-2.369,0-4.71045.1167A39.97872,39.97872,0,0,1,150.707,96.56885c-2.01025,4.10058-3.85351,8.29785-5.47949,12.60693l14.9707,5.64844A128.023,128.023,0,0,1,408,160h16a144.55533,144.55533,0,0,0-1.50342-20.76978A80.39611,80.39611,0,0,1,480,216a79.479,79.479,0,0,1-14.541,46.002l13.082,9.21289a96.01412,96.01412,0,0,0-6.292-118.42675Z"/><circle cx="88" cy="360" r="8"/><circle cx="112" cy="360" r="8"/><circle cx="136" cy="360" r="8"/><rect x="160" y="352" width="48" height="16"/><circle cx="88" cy="296" r="8"/><circle cx="112" cy="296" r="8"/><circle cx="136" cy="296" r="8"/><rect x="160" y="288" width="48" height="16"/><path d="M208,192H88a32.03667,32.03667,0,0,0-32,32v16a31.925,31.925,0,0,0,10.86816,24A31.925,31.925,0,0,0,56,288v16a31.925,31.925,0,0,0,10.86816,24A31.925,31.925,0,0,0,56,352v16a32.03667,32.03667,0,0,0,32,32H208a32.03667,32.03667,0,0,0,32-32V352a31.925,31.925,0,0,0-10.86816-24A31.925,31.925,0,0,0,240,304V288a31.925,31.925,0,0,0-10.86816-24A31.925,31.925,0,0,0,240,240V224A32.03667,32.03667,0,0,0,208,192Zm16,160v16a16.01833,16.01833,0,0,1-16,16H88a16.01833,16.01833,0,0,1-16-16V352a16.01833,16.01833,0,0,1,16-16H208A16.01833,16.01833,0,0,1,224,352Zm0-64v16a16.01833,16.01833,0,0,1-16,16H88a16.01833,16.01833,0,0,1-16-16V288a16.01833,16.01833,0,0,1,16-16H208A16.01833,16.01833,0,0,1,224,288ZM88,256a16.01833,16.01833,0,0,1-16-16V224a16.01833,16.01833,0,0,1,16-16H208a16.01833,16.01833,0,0,1,16,16v16a16.01833,16.01833,0,0,1-16,16Z"/><circle cx="88" cy="232" r="8"/><circle cx="112" cy="232" r="8"/><circle cx="136" cy="232" r="8"/><rect x="160" y="224" width="48" height="16"/><path d="M424,232H360a32.03667,32.03667,0,0,0-32,32v48a32.03667,32.03667,0,0,0,32,32h64a32.03667,32.03667,0,0,0,32-32V264A32.03667,32.03667,0,0,0,424,232Zm16,32v4.30518A31.792,31.792,0,0,0,424,264H406.833a15.91089,15.91089,0,0,1-14.31055-8.84375l-2.7334-5.46777c-.28833-.57666-.6001-1.13526-.9187-1.68848H424A16.01833,16.01833,0,0,1,440,264Zm0,48a16.01833,16.01833,0,0,1-16,16H360a16.01833,16.01833,0,0,1-16-16V264a16.01833,16.01833,0,0,1,16-16h1.167a15.91089,15.91089,0,0,1,14.31055,8.84375l2.7334,5.46777A31.8263,31.8263,0,0,0,406.833,280H424a16.01833,16.01833,0,0,1,16,16Z"/><path d="M424,384H360a32.03667,32.03667,0,0,0-32,32v48a32.03667,32.03667,0,0,0,32,32h64a32.03667,32.03667,0,0,0,32-32V416A32.03667,32.03667,0,0,0,424,384Zm16,32v4.30518A31.792,31.792,0,0,0,424,416H406.833a15.91089,15.91089,0,0,1-14.31055-8.84375l-2.7334-5.46777c-.28833-.57666-.6001-1.13526-.9187-1.68848H424A16.01833,16.01833,0,0,1,440,416Zm0,48a16.01833,16.01833,0,0,1-16,16H360a16.01833,16.01833,0,0,1-16-16V416a16.01833,16.01833,0,0,1,16-16h1.167a15.91089,15.91089,0,0,1,14.31055,8.84375l2.7334,5.46777A31.8263,31.8263,0,0,0,406.833,432H424a16.01833,16.01833,0,0,1,16,16Z"/><path d="M248,280v16h24V448a8.00039,8.00039,0,0,0,8,8h32V440H288V296h24V280H248Z"/></symbol><symbol id="google" viewBox="0 0 512 512"><title>google</title><path style="fill:#3199FF;" d="M375.655,479.919c-5.766,0-11.373-2.99-14.468-8.339c-4.617-7.982-1.889-18.195,6.093-22.812 c54.713-31.648,93.473-84.906,106.344-146.116c0.011-0.055,0.023-0.109,0.036-0.163c3.285-14.884,4.95-30.524,4.95-46.49 c0-11.346-0.841-22.528-2.507-33.391H289.391v66.783h96.39c5.506,0,10.659,2.715,13.772,7.257 c3.113,4.541,3.787,10.326,1.801,15.461c-12.763,33.003-36.712,60.986-67.432,78.795c-7.977,4.625-18.192,1.907-22.817-6.071 c-4.625-7.977-1.907-18.193,6.071-22.817c16.727-9.697,30.901-23.224,41.368-39.234h-85.848c-9.22,0-16.696-7.475-16.696-16.696 V205.913c0-9.22,7.475-16.696,16.696-16.696h217.266c7.835,0,14.614,5.447,16.303,13.097C510.071,219.557,512,237.619,512,256 c0,18.35-1.923,36.383-5.715,53.597c-14.834,70.441-59.402,131.7-122.285,168.075C381.368,479.194,378.492,479.919,375.655,479.919z "/><path style="fill:#29CC5E;" d="M388.626,473.692c0.109-0.136,0.23-0.264,0.335-0.402c0.238-0.316,0.452-0.647,0.666-0.976 c0.079-0.122,0.17-0.238,0.246-0.362c0.219-0.358,0.412-0.729,0.603-1.101c0.053-0.105,0.119-0.205,0.17-0.312 c0.194-0.397,0.361-0.806,0.522-1.217c0.034-0.087,0.078-0.17,0.11-0.258c0.167-0.449,0.308-0.906,0.437-1.367 c0.014-0.053,0.036-0.105,0.05-0.158c0.138-0.514,0.25-1.035,0.339-1.56c0-0.001,0.001-0.002,0.001-0.004 c0.621-3.695,0.008-7.619-2.015-11.116c-0.003-0.006-0.008-0.011-0.011-0.018l-50.075-86.731c-0.001-0.002-0.003-0.004-0.004-0.008 c-0.003-0.006-0.006-0.012-0.009-0.018c-0.199-0.344-0.423-0.666-0.642-0.99c-0.095-0.14-0.178-0.29-0.277-0.426 c-0.242-0.335-0.504-0.646-0.767-0.957c-0.096-0.115-0.183-0.239-0.282-0.351c-0.284-0.319-0.587-0.616-0.89-0.909 c-0.09-0.087-0.174-0.185-0.265-0.27c-0.324-0.298-0.664-0.573-1.008-0.843c-0.083-0.066-0.16-0.14-0.245-0.204 c-0.348-0.263-0.711-0.501-1.076-0.733c-0.089-0.057-0.173-0.124-0.263-0.178c-0.354-0.217-0.721-0.407-1.089-0.597 c-0.11-0.057-0.214-0.124-0.325-0.177c-0.351-0.17-0.713-0.315-1.074-0.461c-0.135-0.055-0.266-0.121-0.402-0.171 c-0.331-0.124-0.67-0.22-1.007-0.322c-0.175-0.053-0.345-0.119-0.521-0.166c-0.297-0.079-0.6-0.132-0.9-0.196 c-0.224-0.047-0.443-0.107-0.669-0.144c-0.257-0.043-0.519-0.061-0.778-0.092c-0.273-0.032-0.544-0.077-0.819-0.096 c-0.219-0.016-0.441-0.008-0.662-0.014c-0.317-0.01-0.632-0.028-0.951-0.02c-0.188,0.006-0.376,0.031-0.564,0.042 c-0.351,0.021-0.702,0.037-1.053,0.081c-0.163,0.02-0.323,0.059-0.484,0.085c-0.376,0.058-0.752,0.113-1.125,0.198 c-0.149,0.035-0.296,0.086-0.445,0.125c-0.383,0.098-0.766,0.195-1.145,0.322c-0.166,0.056-0.327,0.131-0.493,0.193 c-0.357,0.132-0.716,0.26-1.067,0.419c-0.196,0.088-0.386,0.2-0.58,0.297c-0.309,0.154-0.621,0.298-0.925,0.473 c-0.004,0.002-0.009,0.006-0.013,0.009c-0.003,0.002-0.008,0.003-0.011,0.006c-18.528,10.74-39.681,16.417-61.173,16.417 c-43.48,0-84.103-23.475-106.013-61.264c-4.625-7.977-14.841-10.693-22.817-6.069c-7.977,4.625-10.694,14.841-6.069,22.817 c27.862,48.056,79.553,77.907,134.9,77.907c21.751,0,43.231-4.587,62.988-13.335l33.524,58.063 c-30.009,14.454-63.046,22.055-96.512,22.055c-79.122,0-152.989-42.663-192.776-111.339c-4.621-7.978-14.836-10.7-22.816-6.076 c-7.978,4.622-10.699,14.837-6.076,22.816c22.125,38.191,53.918,70.23,91.941,92.654C165.469,499.781,210.328,512,256,512 c44.915,0,89.176-11.871,128-34.327c0.286-0.166,0.551-0.354,0.824-0.533c0.2-0.131,0.412-0.253,0.604-0.392 c0.26-0.188,0.499-0.396,0.746-0.597c0.186-0.151,0.384-0.293,0.563-0.452c0.254-0.225,0.483-0.469,0.72-0.707 c0.151-0.151,0.314-0.294,0.459-0.45C388.167,474.27,388.394,473.98,388.626,473.692z"/><path style="fill:#FFD500;" d="M149.377,334.865c0.134-0.199,0.279-0.392,0.405-0.597c0.157-0.256,0.289-0.524,0.432-0.788 c0.112-0.209,0.237-0.412,0.341-0.624c0.129-0.267,0.235-0.543,0.349-0.816c0.093-0.22,0.198-0.436,0.282-0.66 c0.104-0.277,0.181-0.561,0.269-0.843c0.071-0.228,0.156-0.452,0.217-0.683c0.078-0.292,0.13-0.589,0.193-0.884 c0.048-0.227,0.108-0.452,0.147-0.681c0.049-0.295,0.072-0.594,0.106-0.893c0.027-0.234,0.066-0.466,0.082-0.702 c0.021-0.296,0.014-0.593,0.02-0.889c0.004-0.24,0.021-0.48,0.014-0.72c-0.008-0.297-0.042-0.595-0.067-0.894 c-0.019-0.24-0.026-0.481-0.056-0.721c-0.038-0.305-0.104-0.608-0.159-0.912c-0.042-0.232-0.07-0.465-0.122-0.696 c-0.07-0.312-0.169-0.619-0.259-0.928c-0.063-0.22-0.112-0.443-0.186-0.662c-0.101-0.303-0.231-0.599-0.351-0.898 c-0.088-0.221-0.163-0.445-0.26-0.664c-0.13-0.288-0.288-0.568-0.436-0.851c-0.114-0.219-0.213-0.442-0.337-0.658 c-0.002-0.004-0.006-0.008-0.008-0.011c-0.003-0.006-0.004-0.01-0.008-0.016c-10.741-18.53-16.42-39.682-16.42-61.173 c0-21.641,5.753-42.923,16.639-61.546c4.654-7.96,1.972-18.186-5.988-22.84c-7.959-4.653-18.185-1.971-22.84,5.988 c-13.871,23.73-21.202,50.839-21.202,78.397c0,21.751,4.588,43.231,13.339,62.987l-58.075,33.529 C40.989,322.547,33.391,289.509,33.391,256c0-38.901,10.216-77.202,29.541-110.765c4.601-7.991,1.853-18.198-6.137-22.8 s-18.197-1.853-22.8,6.137C11.756,167.196,0,211.26,0,256c0,44.965,11.866,89.218,34.315,127.979 c0.001,0.002,0.002,0.006,0.004,0.008c0.001,0.003,0.003,0.006,0.006,0.008c0.002,0.004,0.004,0.009,0.008,0.013 c0.072,0.125,0.152,0.242,0.227,0.363c0.125,0.203,0.246,0.408,0.378,0.604c0.072,0.108,0.152,0.209,0.228,0.315 c0.144,0.204,0.286,0.41,0.437,0.604c0.07,0.09,0.146,0.173,0.217,0.262c0.164,0.203,0.327,0.406,0.499,0.6 c0.082,0.092,0.171,0.178,0.255,0.268c0.168,0.18,0.335,0.363,0.51,0.535c0.081,0.08,0.169,0.154,0.253,0.232 c0.185,0.174,0.367,0.348,0.559,0.513c0.07,0.06,0.145,0.115,0.216,0.174c0.209,0.174,0.42,0.348,0.637,0.511 c0.062,0.047,0.127,0.088,0.19,0.134c0.23,0.168,0.462,0.335,0.7,0.491c0.061,0.04,0.125,0.075,0.187,0.113 c0.243,0.155,0.488,0.307,0.737,0.447c0.077,0.043,0.156,0.08,0.233,0.121c0.239,0.13,0.479,0.259,0.722,0.377 c0.097,0.047,0.198,0.086,0.296,0.131c0.228,0.105,0.455,0.21,0.687,0.304c0.11,0.045,0.224,0.081,0.334,0.124 c0.224,0.086,0.447,0.173,0.675,0.248c0.09,0.03,0.184,0.053,0.275,0.081c0.25,0.079,0.501,0.157,0.754,0.224 c0.115,0.03,0.23,0.051,0.345,0.079c0.233,0.056,0.465,0.115,0.701,0.16c0.14,0.028,0.284,0.046,0.425,0.069 c0.211,0.036,0.423,0.076,0.636,0.103c0.166,0.021,0.332,0.032,0.499,0.048c0.191,0.019,0.382,0.043,0.573,0.056 c0.358,0.023,0.718,0.034,1.079,0.034c0.355,0,0.71-0.011,1.065-0.034c0.118-0.008,0.236-0.025,0.353-0.035 c0.237-0.02,0.474-0.038,0.711-0.069c0.194-0.024,0.386-0.062,0.579-0.094c0.16-0.027,0.322-0.047,0.482-0.078 c0.201-0.039,0.401-0.091,0.601-0.138c0.151-0.036,0.304-0.065,0.455-0.105c0.195-0.051,0.387-0.116,0.581-0.174 c0.155-0.047,0.312-0.088,0.465-0.14c0.169-0.057,0.337-0.126,0.505-0.189c0.177-0.066,0.354-0.126,0.53-0.198 c0.138-0.057,0.274-0.125,0.411-0.185c0.203-0.09,0.407-0.176,0.608-0.275c0.121-0.06,0.239-0.129,0.36-0.193 c0.209-0.109,0.42-0.215,0.626-0.334l86.766-50.094c0.003-0.001,0.006-0.003,0.009-0.006c0.006-0.003,0.012-0.007,0.018-0.01 c0.26-0.15,0.5-0.324,0.748-0.486c0.224-0.146,0.457-0.282,0.672-0.436c0.236-0.17,0.451-0.359,0.676-0.541 c0.21-0.17,0.432-0.331,0.633-0.509c0.215-0.19,0.407-0.398,0.611-0.599c0.189-0.186,0.388-0.364,0.568-0.559 c0.199-0.216,0.376-0.449,0.563-0.673c0.16-0.194,0.332-0.38,0.483-0.58C149.052,335.367,149.21,335.113,149.377,334.865z"/><path style="fill:#FF4B26;" d="M436.862,75.108C388.304,26.674,324.074,0,256,0c-45.79,0-90.748,12.278-130.017,35.507 c-37.833,22.38-69.455,54.281-91.519,92.281c-0.046,0.077-0.1,0.146-0.145,0.224c-0.024,0.042-0.041,0.086-0.066,0.128 c-0.085,0.146-0.175,0.287-0.258,0.432c-4.601,7.991-1.854,18.198,6.137,22.8c1.343,0.774,2.753,1.321,4.184,1.69l82.881,47.851 c2.629,1.518,5.5,2.239,8.332,2.239c5.77,0,11.383-2.994,14.474-8.35c0.028-0.048,0.047-0.097,0.075-0.145 c0.041-0.069,0.087-0.134,0.128-0.203c21.953-37.557,62.491-60.889,105.794-60.889c32.474,0,63.195,12.779,86.502,35.985 c6.525,6.496,17.075,6.485,23.584-0.026l70.79-70.79c3.133-3.133,4.893-7.384,4.891-11.816 C441.764,82.487,439.999,78.238,436.862,75.108z M353.647,134.742c-27.726-22.397-61.834-34.568-97.647-34.568 c-49.725,0-96.565,24.152-125.756,63.942L72.175,130.59C113.493,70.245,182.422,33.391,256,33.391 c53.609,0,104.499,19.055,145.016,53.981L353.647,134.742z"/></symbol><symbol id="microsoft" viewBox="0 0 512 512"><title>microsoft</title><path style="fill:#4CAF50;" d="M272,240h240V16c0-8.832-7.168-16-16-16H272V240z"/><path style="fill:#F44336;" d="M240,240V0H16C7.168,0,0,7.168,0,16v224H240z"/><path style="fill:#2196F3;" d="M240,272H0v224c0,8.832,7.168,16,16,16h224V272z"/><path style="fill:#FFC107;" d="M272,272v240h224c8.832,0,16-7.168,16-16V272H272z"/></symbol><symbol id="network" viewBox="0 0 512 512"><title>network</title><path d="m103.246 387.843c0-4.142-3.358-7.5-7.5-7.5-44.524 0-80.746-36.196-80.746-80.686 0-31.561 18.583-60.404 47.341-73.481 3.771-1.714 5.438-6.161 3.723-9.932-1.714-3.771-6.162-5.438-9.932-3.723-34.099 15.506-56.132 49.708-56.132 87.136 0 52.761 42.951 95.686 95.746 95.686 4.142 0 7.5-3.358 7.5-7.5z"/><path d="m157.051 231.168c10.814-60.393 63.302-104.226 124.804-104.226 47.031 0 89.967 25.807 112.051 67.351 1.945 3.657 6.485 5.046 10.143 3.102 3.657-1.944 5.046-6.485 3.102-10.143-4.2-7.901-9.075-15.293-14.532-22.12v-99.975l18.144-21.62c2.454.92 5.109 1.423 7.881 1.423 12.407 0 22.5-10.084 22.5-22.48s-10.094-22.48-22.5-22.48-22.5 10.084-22.5 22.48c0 4.166 1.14 8.071 3.125 11.419l-19.895 23.706c-1.133 1.351-1.755 3.058-1.755 4.821v86.662c-13.168-12.056-28.489-21.503-45.151-27.853v-52.348c8.73-3.093 15-11.427 15-21.196 0-12.396-10.093-22.48-22.5-22.48s-22.5 10.084-22.5 22.48c0 9.769 6.27 18.103 15 21.196v47.57c-11.469-2.963-23.418-4.515-35.613-4.515-6.209 0-12.337.4-18.355 1.177v-69.443c8.73-3.093 15-11.427 15-21.196 0-12.396-10.093-22.48-22.5-22.48s-22.5 10.084-22.5 22.48c0 9.769 6.27 18.103 15 21.196v72.205c-19.889 4.781-38.237 13.754-53.968 26.019v-73.013c8.73-3.093 15-11.427 15-21.196 0-12.396-10.093-22.48-22.5-22.48s-22.5 10.084-22.5 22.48c0 9.769 6.27 18.103 15 21.196v86.53c-16.346 16.99-28.536 38.15-34.799 62-3.503-2.096-7.118-3.954-10.828-5.57v-149.42c0-1.764-.622-3.471-1.755-4.821l-19.894-23.706c1.985-3.349 3.125-7.254 3.125-11.42 0-12.396-10.093-22.48-22.5-22.48s-22.5 10.084-22.5 22.48 10.093 22.48 22.5 22.48c2.771 0 5.427-.503 7.88-1.423l18.144 21.62v141.61c-7.488-1.851-15.245-2.795-23.16-2.795-4.142 0-7.5 3.358-7.5 7.5s3.358 7.5 7.5 7.5c18.041 0 35.101 5.813 49.337 16.81 1.333 1.03 2.951 1.565 4.586 1.565.909 0 1.823-.165 2.697-.502 2.447-.944 4.223-3.096 4.686-5.677zm261.593-216.168c4.136 0 7.5 3.355 7.5 7.48s-3.364 7.48-7.5 7.48-7.5-3.355-7.5-7.48 3.364-7.48 7.5-7.48zm-93.676 25.21c4.136 0 7.5 3.356 7.5 7.48s-3.364 7.48-7.5 7.48-7.5-3.355-7.5-7.48 3.364-7.48 7.5-7.48zm-68.968-25.21c4.136 0 7.5 3.355 7.5 7.48s-3.364 7.48-7.5 7.48-7.5-3.355-7.5-7.48 3.364-7.48 7.5-7.48zm-68.968 25.21c4.136 0 7.5 3.356 7.5 7.48s-3.364 7.48-7.5 7.48-7.5-3.355-7.5-7.48 3.364-7.48 7.5-7.48zm-101.651-17.73c0-4.125 3.364-7.48 7.5-7.48s7.5 3.355 7.5 7.48-3.364 7.48-7.5 7.48-7.5-3.356-7.5-7.48z"/><path d="m439.769 250.967c-5.475 0-10.867.605-16.125 1.805-.063-10.444-1.27-20.849-3.586-30.941-.927-4.038-4.952-6.559-8.988-5.632-4.037.927-6.559 4.951-5.632 8.988 2.129 9.273 3.208 18.848 3.208 28.456 0 2.931-.104 5.919-.309 8.88-.178 2.572.978 5.056 3.061 6.576 2.083 1.521 4.801 1.863 7.196.91 6.733-2.681 13.857-4.041 21.174-4.041 31.558 0 57.231 25.654 57.231 57.188s-25.674 57.188-57.231 57.188h-24.596c-4.142 0-7.5 3.358-7.5 7.5s3.358 7.5 7.5 7.5h24.596c39.829 0 72.231-32.383 72.231-72.188.001-39.805-32.402-72.189-72.23-72.189z"/><path d="m355.522 380.343h-69.507c-4.142 0-7.5 3.358-7.5 7.5s3.358 7.5 7.5 7.5h31.453v72.981c-8.73 3.093-15 11.427-15 21.196 0 12.396 10.093 22.48 22.5 22.48s22.5-10.084 22.5-22.48c0-9.77-6.27-18.104-15-21.196v-72.981h23.054c4.142 0 7.5-3.358 7.5-7.5s-3.358-7.5-7.5-7.5zm-30.554 116.657c-4.136 0-7.5-3.355-7.5-7.48s3.364-7.48 7.5-7.48 7.5 3.356 7.5 7.48-3.364 7.48-7.5 7.48z"/><path d="m225.962 380.343h-68.294c-4.142 0-7.5 3.358-7.5 7.5s3.358 7.5 7.5 7.5h21.864v72.981c-8.73 3.093-15 11.427-15 21.196 0 12.396 10.093 22.48 22.5 22.48s22.5-10.084 22.5-22.48c0-9.77-6.27-18.104-15-21.196v-72.981h31.43c4.142 0 7.5-3.358 7.5-7.5s-3.358-7.5-7.5-7.5zm-38.93 116.657c-4.136 0-7.5-3.355-7.5-7.48s3.364-7.48 7.5-7.48 7.5 3.356 7.5 7.48-3.364 7.48-7.5 7.48z"/><path d="m126.881 315.637c-12.407 0-22.5 10.084-22.5 22.48 0 9.769 6.27 18.103 15 21.196v102.51l-31.77 37.855c-2.663 3.173-2.249 7.903.924 10.566 1.405 1.179 3.116 1.755 4.817 1.755 2.14 0 4.266-.911 5.749-2.679l33.525-39.947c1.133-1.351 1.755-3.058 1.755-4.821v-105.24c8.73-3.093 15-11.427 15-21.196 0-12.395-10.093-22.479-22.5-22.479zm0 29.96c-4.136 0-7.5-3.355-7.5-7.48s3.364-7.48 7.5-7.48 7.5 3.356 7.5 7.48-3.364 7.48-7.5 7.48z"/><path d="m256 315.637c-12.407 0-22.5 10.084-22.5 22.48 0 9.769 6.27 18.103 15 21.196v145.187c0 4.142 3.358 7.5 7.5 7.5s7.5-3.358 7.5-7.5v-145.187c8.73-3.093 15-11.427 15-21.196 0-12.396-10.093-22.48-22.5-22.48zm0 29.96c-4.136 0-7.5-3.355-7.5-7.48s3.364-7.48 7.5-7.48 7.5 3.356 7.5 7.48-3.364 7.48-7.5 7.48z"/><path d="m392.619 461.823v-102.51c8.73-3.093 15-11.427 15-21.196 0-12.396-10.093-22.48-22.5-22.48s-22.5 10.084-22.5 22.48c0 9.769 6.27 18.103 15 21.196v105.24c0 1.764.622 3.471 1.755 4.821l33.525 39.947c1.484 1.768 3.609 2.679 5.749 2.679 1.701 0 3.412-.576 4.817-1.755 3.173-2.663 3.586-7.394.924-10.566zm-7.5-131.186c4.136 0 7.5 3.356 7.5 7.48s-3.364 7.48-7.5 7.48-7.5-3.355-7.5-7.48 3.364-7.48 7.5-7.48z"/></symbol></svg>